<svg width="32" height="32" viewBox="0 0 32 32" fill="none" xmlns="http://www.w3.org/2000/svg">
<g clip-path="url(#clip0_22_87)">
<path d="M2.5 3C1.66875 3 1 3.66875 1 4.5V7.5C1 8.33125 1.66875 9 2.5 9H5.5C6.33125 9 7 8.33125 7 7.5V4.5C7 3.66875 6.33125 3 5.5 3H2.5ZM12 4C10.8937 4 10 4.89375 10 6C10 7.10625 10.8937 8 12 8H30C31.1062 8 32 7.10625 32 6C32 4.89375 31.1062 4 30 4H12ZM12 14C10.8937 14 10 14.8937 10 16C10 17.1062 10.8937 18 12 18H30C31.1062 18 32 17.1062 32 16C32 14.8937 31.1062 14 30 14H12ZM12 24C10.8937 24 10 24.8937 10 26C10 27.1062 10.8937 28 12 28H30C31.1062 28 32 27.1062 32 26C32 24.8937 31.1062 24 30 24H12ZM1 14.5V17.5C1 18.3312 1.66875 19 2.5 19H5.5C6.33125 19 7 18.3312 7 17.5V14.5C7 13.6687 6.33125 13 5.5 13H2.5C1.66875 13 1 13.6687 1 14.5ZM2.5 23C1.66875 23 1 23.6687 1 24.5V27.5C1 28.3312 1.66875 29 2.5 29H5.5C6.33125 29 7 28.3312 7 27.5V24.5C7 23.6687 6.33125 23 5.5 23H2.5Z" fill="#AAAAAA"/>
</g>
<defs>
<clipPath id="clip0_22_87">
<rect width="32" height="32" fill="white"/>
</clipPath>
</defs>
</svg>
