<svg width="32" height="32" viewBox="0 0 32 32" fill="none" xmlns="http://www.w3.org/2000/svg">
<g clip-path="url(#clip0_22_92)">
<path d="M18.2859 5C18.2859 3.89375 17.2645 3 16.0002 3C14.7359 3 13.7145 3.89375 13.7145 5V14H3.42878C2.16449 14 1.14307 14.8938 1.14307 16C1.14307 17.1062 2.16449 18 3.42878 18H13.7145V27C13.7145 28.1063 14.7359 29 16.0002 29C17.2645 29 18.2859 28.1063 18.2859 27V18H28.5716C29.8359 18 30.8573 17.1062 30.8573 16C30.8573 14.8938 29.8359 14 28.5716 14H18.2859V5Z" fill="#AAAAAA"/>
</g>
<defs>
<clipPath id="clip0_22_92">
<rect width="32" height="32" fill="white"/>
</clipPath>
</defs>
</svg>
